#N canvas 524 22 858 1085 10;
#X obj 379 998 textfile;
#X msg 399 656 clear;
#X floatatom 379 79 5 0 0 0 - - -;
#X floatatom 379 249 5 0 0 0 - - -;
#X obj 379 228 moses 10;
#X obj 424 268 moses 100;
#X floatatom 424 289 5 0 0 0 - - -;
#X msg 379 269 00\$1;
#X msg 424 309 0\$1;
#X floatatom 475 291 5 0 0 0 - - -;
#X obj 379 426 pack f f s;
#X obj 475 426 pack f f f;
#X obj 379 392 f;
#X obj 407 400 f;
#X obj 475 382 f;
#X obj 503 404 f;
#X msg 475 311 \$1;
#X obj 436 404 pack s;
#X obj 379 538 spigot;
#X msg 379 585 add \$2.\$3 \$1;
#X obj 379 204 spigot;
#X obj 412 143 sel 0;
#X floatatom 412 185 5 0 0 0 - - -;
#X msg 412 163 1;
#X msg 439 163 0;
#X obj 445 101 i;
#X floatatom 456 123 5 0 0 0 - - -;
#X floatatom 411 517 5 0 0 0 - - -;
#X msg 418 975 write \$1 cr;
#X obj 451 932 savepanel;
#X obj 418 954 symbol;
#X obj 502 955 t b;
#X obj 502 975 s \$1-start;
#X obj 418 775 r \$1-onoff;
#X obj 418 911 sel 0 1;
#X obj 399 613 r \$1-onoff;
#X obj 399 635 sel 1;
#X obj 411 453 r \$1-onoff;
#X obj 411 475 sel 0;
#X msg 411 496 0;
#X obj 482 453 r \$1-start;
#X msg 482 475 1;
#X obj 379 335 t b b;
#X obj 475 335 t b b;
#X obj 585 45 loadbang;
#X obj 585 131 s \$1-setonoff;
#X msg 585 110 0;
#X obj 445 81 r \$1-res;
#X obj 412 123 mod 20;
#X obj 394 355 r \$1-value;
#X obj 422 377 r \$1-sec;
#X obj 490 359 r \$1-value;
#X obj 518 381 r \$1-sec;
#X obj 379 57 r \$1-msec;
#X obj 102 78 s \$1-value;
#X obj 102 55 inlet;
#X obj 100 333 r \$1-onoff;
#X obj 100 354 sel 0;
#X msg 100 376 0;
#X obj 186 333 r \$1-start;
#X msg 186 355 1;
#X obj 186 421 tgl 15 0 empty empty empty 17 7 0 10 -262144 -1 -1 0
1;
#X obj 186 464 f;
#X obj 215 464 + 1;
#X obj 186 441 metro 1;
#X floatatom 186 487 5 0 0 0 - - -;
#X obj 224 487 s \$1-msec;
#X obj 186 531 sel 999;
#X obj 186 553 del 1;
#X obj 186 575 f;
#X obj 217 576 + 1;
#X floatatom 186 597 5 0 0 0 - - -;
#X obj 186 508 mod 1000;
#X obj 225 597 s \$1-sec;
#X msg 100 447 0;
#X msg 100 558 1;
#X msg 100 580 0;
#X floatatom 102 707 5 0 0 0 - - -;
#X obj 102 684 * 100;
#X obj 102 661 i;
#X obj 102 639 r \$1-rescoarse;
#X obj 196 640 r \$1-resfine;
#X obj 196 660 i;
#X msg 585 153 0;
#X obj 585 174 s \$1-setrescoarse;
#X obj 585 88 s \$1-setresfine;
#X floatatom 196 682 5 0 0 0 - - -;
#X obj 102 732 +;
#X obj 196 704 t b;
#X obj 102 754 s \$1-res;
#X obj 101 256 outlet;
#X obj 101 235 r \$1-value;
#X obj 102 102 cnv 15 200 124 empty empty empty 0 0 1 16 -42066 -262144
0;
#X obj 585 219 print;
#X msg 585 198 ARE YOU SURE????????;
#X obj 214 118 cnv 15 1 1 empty empty Maker 0 0 1 14 -42066 -262144
0;
#X obj 185 118 cnv 15 1 1 empty empty .brk 0 0 1 14 -42066 -262144
0;
#X obj 151 118 cnv 15 1 1 empty empty CDP 0 0 1 14 -42066 -262144 0
;
#X msg 585 66 20.1;
#X obj 117 202 tgl 15 0 \$1-onoff \$1-setonoff On/Off 17 7 0 10 -195568
-245453 -241339 0 1;
#X obj 120 179 hsl 128 15 100 1 0 0 \$1-resfine \$1-setresfine Resolution_Fine
-2 -8 0 10 -195568 -245453 -249661 10250 1;
#X floatatom 258 164 5 0 0 0 - #1-res #1-nooutlet;
#X obj 121 147 hsl 128 15 10 0 0 0 \$1-rescoarse \$1-setrescoarse Resolution_Coarse
-2 -8 0 10 -195568 -245453 -245500 12700 1;
#X obj 451 799 loadbang;
#X obj 418 888 spigot;
#X msg 451 844 1;
#X obj 451 822 del 10;
#X floatatom 451 866 5 0 0 0 - - -;
#X obj 379 561 list-round 0.001;
#X obj 225 202 cnv 15 1 1 empty empty . 0 10 1 14 -42066 -262144 0
;
#X obj 267 204 cnv 15 1 1 empty empty sec 0 10 0 10 -42066 -245500
0;
#X floatatom 191 201 5 0 0 0 - #1-sec #1-nooutlet3;
#X floatatom 231 201 5 0 0 0 - #1-msec #1-nooutlet2;
#X obj 410 682 t b;
#X msg 410 745 add 0 \$1;
#X obj 425 702 r \$1-value;
#X obj 410 723 f;
#X connect 1 0 0 0;
#X connect 2 0 20 0;
#X connect 2 0 48 0;
#X connect 3 0 7 0;
#X connect 4 0 3 0;
#X connect 4 1 5 0;
#X connect 5 0 6 0;
#X connect 5 1 9 0;
#X connect 6 0 8 0;
#X connect 7 0 17 0;
#X connect 7 0 42 0;
#X connect 8 0 17 0;
#X connect 8 0 42 0;
#X connect 9 0 16 0;
#X connect 10 0 18 0;
#X connect 11 0 18 0;
#X connect 12 0 10 0;
#X connect 13 0 10 1;
#X connect 14 0 11 0;
#X connect 15 0 11 1;
#X connect 16 0 11 2;
#X connect 16 0 43 0;
#X connect 17 0 10 2;
#X connect 18 0 108 0;
#X connect 19 0 0 0;
#X connect 20 0 4 0;
#X connect 21 0 23 0;
#X connect 21 1 24 0;
#X connect 22 0 20 1;
#X connect 23 0 22 0;
#X connect 24 0 22 0;
#X connect 25 0 26 0;
#X connect 25 0 48 1;
#X connect 27 0 18 1;
#X connect 28 0 0 0;
#X connect 29 0 30 1;
#X connect 29 0 31 0;
#X connect 30 0 28 0;
#X connect 31 0 32 0;
#X connect 33 0 104 0;
#X connect 34 0 30 0;
#X connect 34 1 29 0;
#X connect 35 0 36 0;
#X connect 36 0 1 0;
#X connect 36 0 113 0;
#X connect 37 0 38 0;
#X connect 38 0 39 0;
#X connect 39 0 27 0;
#X connect 40 0 41 0;
#X connect 41 0 27 0;
#X connect 42 0 12 0;
#X connect 42 0 13 0;
#X connect 42 1 13 0;
#X connect 43 0 15 0;
#X connect 43 0 14 0;
#X connect 43 1 15 0;
#X connect 44 0 98 0;
#X connect 44 0 46 0;
#X connect 44 0 83 0;
#X connect 44 0 94 0;
#X connect 46 0 45 0;
#X connect 47 0 25 0;
#X connect 48 0 21 0;
#X connect 49 0 12 1;
#X connect 50 0 13 1;
#X connect 51 0 14 1;
#X connect 52 0 15 1;
#X connect 53 0 2 0;
#X connect 55 0 54 0;
#X connect 56 0 57 0;
#X connect 57 0 58 0;
#X connect 58 0 61 0;
#X connect 58 0 74 0;
#X connect 58 0 75 0;
#X connect 58 0 76 0;
#X connect 59 0 60 0;
#X connect 60 0 61 0;
#X connect 61 0 64 0;
#X connect 62 0 63 0;
#X connect 62 0 65 0;
#X connect 63 0 62 1;
#X connect 64 0 62 0;
#X connect 65 0 66 0;
#X connect 65 0 72 0;
#X connect 67 0 68 0;
#X connect 68 0 69 0;
#X connect 69 0 70 0;
#X connect 69 0 71 0;
#X connect 70 0 69 1;
#X connect 71 0 73 0;
#X connect 72 0 67 0;
#X connect 74 0 62 1;
#X connect 74 0 65 0;
#X connect 75 0 69 1;
#X connect 76 0 71 0;
#X connect 77 0 87 0;
#X connect 78 0 77 0;
#X connect 79 0 78 0;
#X connect 80 0 79 0;
#X connect 81 0 82 0;
#X connect 82 0 86 0;
#X connect 83 0 84 0;
#X connect 86 0 87 1;
#X connect 86 0 88 0;
#X connect 87 0 89 0;
#X connect 88 0 77 0;
#X connect 91 0 90 0;
#X connect 94 0 93 0;
#X connect 98 0 85 0;
#X connect 103 0 106 0;
#X connect 104 0 34 0;
#X connect 105 0 107 0;
#X connect 106 0 105 0;
#X connect 107 0 104 1;
#X connect 108 0 19 0;
#X connect 113 0 116 0;
#X connect 114 0 0 0;
#X connect 115 0 116 1;
#X connect 116 0 114 0;
#X coords 0 -1 1 1 204 128 1 100 100;
