#N canvas 4 22 1463 989 10;
#X obj 923 923 textfile;
#X msg 943 677 clear;
#X floatatom 922 48 5 0 0 0 - - -;
#X floatatom 922 218 5 0 0 0 - - -;
#X obj 922 197 moses 10;
#X obj 967 237 moses 100;
#X floatatom 967 258 5 0 0 0 - - -;
#X msg 922 238 00\$1;
#X msg 967 278 0\$1;
#X floatatom 1018 260 5 0 0 0 - - -;
#X obj 922 387 f;
#X obj 1019 353 f;
#X msg 1018 280 \$1;
#X obj 967 391 pack s;
#X obj 922 567 spigot;
#X obj 922 173 spigot;
#X obj 955 112 sel 0;
#X floatatom 955 154 5 0 0 0 - - -;
#X msg 955 132 1;
#X msg 982 132 0;
#X obj 988 70 i;
#X floatatom 999 92 5 0 0 0 - - -;
#X floatatom 954 546 5 0 0 0 - - -;
#X msg 962 900 write \$1 cr;
#X obj 995 857 savepanel;
#X obj 962 879 symbol;
#X obj 1046 880 t b;
#X obj 1046 900 s \$1-start;
#X obj 962 700 r \$1-onoff;
#X obj 962 836 sel 0 1;
#X obj 943 634 r \$1-onoff;
#X obj 943 656 sel 1;
#X obj 954 482 r \$1-onoff;
#X obj 954 504 sel 0;
#X msg 954 525 0;
#X obj 1025 482 r \$1-start;
#X msg 1025 504 1;
#X obj 1156 35 loadbang;
#X obj 1156 121 s \$1-setonoff;
#X msg 1156 100 0;
#X obj 988 50 r \$1-res;
#X obj 955 92 mod 20;
#X obj 937 364 r \$1-sec;
#X obj 1034 330 r \$1-sec;
#X obj 922 26 r \$1-msec;
#X obj 100 333 r \$1-onoff;
#X obj 100 354 sel 0;
#X msg 100 376 0;
#X obj 186 333 r \$1-start;
#X msg 186 355 1;
#X obj 186 421 tgl 15 0 empty empty empty 17 7 0 10 -262144 -1 -1 0
1;
#X obj 186 464 f;
#X obj 215 464 + 1;
#X obj 186 441 metro 1;
#X floatatom 186 487 5 0 0 0 - - -;
#X obj 224 487 s \$1-msec;
#X obj 186 531 sel 999;
#X obj 186 553 del 1;
#X obj 186 575 f;
#X obj 217 576 + 1;
#X floatatom 186 597 5 0 0 0 - - -;
#X obj 186 508 mod 1000;
#X obj 225 597 s \$1-sec;
#X msg 100 447 0;
#X msg 100 558 1;
#X msg 100 580 0;
#X floatatom 102 707 5 0 0 0 - - -;
#X obj 102 684 * 100;
#X obj 102 661 i;
#X obj 102 639 r \$1-rescoarse;
#X obj 196 640 r \$1-resfine;
#X obj 196 660 i;
#X msg 1156 143 0;
#X obj 1156 164 s \$1-setrescoarse;
#X obj 1156 78 s \$1-setresfine;
#X floatatom 196 682 5 0 0 0 - - -;
#X obj 102 732 +;
#X obj 196 704 t b;
#X obj 102 754 s \$1-res;
#X obj 101 256 outlet;
#X obj 101 235 r \$1-value;
#X obj 102 102 cnv 15 200 124 empty empty empty 0 0 1 16 -42066 -262144
0;
#X obj 1156 209 print;
#X obj 214 118 cnv 15 1 1 empty empty Maker 0 0 1 14 -42066 -262144
0;
#X obj 185 118 cnv 15 1 1 empty empty .brk 0 0 1 14 -42066 -262144
0;
#X obj 151 118 cnv 15 1 1 empty empty CDP 0 0 1 14 -42066 -262144 0
;
#X msg 1156 56 20.1;
#X obj 117 200 tgl 15 0 \$1-onoff \$1-setonoff On/Off 17 7 0 10 -195568
-245453 -241339 0 1;
#X obj 120 179 hsl 128 15 100 1 0 0 \$1-resfine \$1-setresfine Resolution_Fine
-2 -8 0 10 -195568 -245453 -249661 6350 1;
#X floatatom 258 164 5 0 0 0 - #1-res #1-nooutlet;
#X obj 121 147 hsl 128 15 10 0 0 0 \$1-rescoarse \$1-setrescoarse Resolution_Coarse
-2 -8 0 10 -195568 -245453 -245500 8500 1;
#X obj 995 724 loadbang;
#X obj 962 813 spigot;
#X msg 995 769 1;
#X obj 995 747 del 10;
#X floatatom 995 791 5 0 0 0 - - -;
#X msg 1156 188 ARE YOU FUCKING SURE????????;
#X obj 475 279 inlet;
#X floatatom 475 299 5 0 0 0 - - -;
#X obj 488 318 inlet;
#X obj 502 338 inlet;
#X obj 516 358 inlet;
#X obj 529 378 inlet;
#X obj 543 398 inlet;
#X obj 557 418 inlet;
#X obj 571 438 inlet;
#X obj 584 458 inlet;
#X obj 598 479 inlet;
#X obj 612 499 inlet;
#X obj 626 519 inlet;
#X obj 639 539 inlet;
#X obj 653 559 inlet;
#X obj 667 579 inlet;
#X obj 681 599 inlet;
#X obj 694 619 inlet;
#X obj 708 639 inlet;
#X obj 722 659 inlet;
#X obj 736 679 inlet;
#X obj 475 786 s \$1-values;
#X obj 377 278 r \$1-triggerout;
#X obj 922 413 pack f s;
#X obj 922 331 s \$1-triggerout;
#X obj 943 434 r \$1-values;
#X obj 922 456 list;
#X msg 923 598 add \$1.\$2 \$3 \$4 \$5 \$6 \$7 \$8 \$9 \$10 \$11 \$12
\$13 \$14 \$15 \$16 \$17 \$18 \$19 \$20 \$21 \$22;
#X obj 1018 375 pack f f;
#X obj 1039 435 r \$1-values;
#X obj 1018 457 list;
#X obj 922 306 t b;
#X obj 1018 304 t b;
#X obj 475 740 pack f f f f f f f f f f f f f f f f f f f f;
#X obj 475 763 list-round 0.001;
#X connect 1 0 0 0;
#X connect 2 0 15 0;
#X connect 2 0 41 0;
#X connect 3 0 7 0;
#X connect 4 0 3 0;
#X connect 4 1 5 0;
#X connect 5 0 6 0;
#X connect 5 1 9 0;
#X connect 6 0 8 0;
#X connect 7 0 13 0;
#X connect 7 0 128 0;
#X connect 8 0 13 0;
#X connect 8 0 128 0;
#X connect 9 0 12 0;
#X connect 10 0 120 0;
#X connect 11 0 125 0;
#X connect 12 0 125 1;
#X connect 12 0 129 0;
#X connect 13 0 120 1;
#X connect 14 0 124 0;
#X connect 15 0 4 0;
#X connect 16 0 18 0;
#X connect 16 1 19 0;
#X connect 17 0 15 1;
#X connect 18 0 17 0;
#X connect 19 0 17 0;
#X connect 20 0 21 0;
#X connect 20 0 41 1;
#X connect 22 0 14 1;
#X connect 23 0 0 0;
#X connect 24 0 25 1;
#X connect 24 0 26 0;
#X connect 25 0 23 0;
#X connect 26 0 27 0;
#X connect 28 0 92 0;
#X connect 29 0 25 0;
#X connect 29 1 24 0;
#X connect 30 0 31 0;
#X connect 31 0 1 0;
#X connect 32 0 33 0;
#X connect 33 0 34 0;
#X connect 34 0 22 0;
#X connect 35 0 36 0;
#X connect 36 0 22 0;
#X connect 37 0 86 0;
#X connect 37 0 39 0;
#X connect 37 0 72 0;
#X connect 37 0 96 0;
#X connect 39 0 38 0;
#X connect 40 0 20 0;
#X connect 41 0 16 0;
#X connect 42 0 10 1;
#X connect 43 0 11 1;
#X connect 44 0 2 0;
#X connect 45 0 46 0;
#X connect 46 0 47 0;
#X connect 47 0 50 0;
#X connect 47 0 63 0;
#X connect 47 0 64 0;
#X connect 47 0 65 0;
#X connect 48 0 49 0;
#X connect 49 0 50 0;
#X connect 50 0 53 0;
#X connect 51 0 52 0;
#X connect 51 0 54 0;
#X connect 52 0 51 1;
#X connect 53 0 51 0;
#X connect 54 0 55 0;
#X connect 54 0 61 0;
#X connect 56 0 57 0;
#X connect 57 0 58 0;
#X connect 58 0 59 0;
#X connect 58 0 60 0;
#X connect 59 0 58 1;
#X connect 60 0 62 0;
#X connect 61 0 56 0;
#X connect 63 0 51 1;
#X connect 63 0 54 0;
#X connect 64 0 58 1;
#X connect 65 0 60 0;
#X connect 66 0 76 0;
#X connect 67 0 66 0;
#X connect 68 0 67 0;
#X connect 69 0 68 0;
#X connect 70 0 71 0;
#X connect 71 0 75 0;
#X connect 72 0 73 0;
#X connect 75 0 76 1;
#X connect 75 0 77 0;
#X connect 76 0 78 0;
#X connect 77 0 66 0;
#X connect 80 0 79 0;
#X connect 86 0 74 0;
#X connect 91 0 94 0;
#X connect 92 0 29 0;
#X connect 93 0 95 0;
#X connect 94 0 93 0;
#X connect 95 0 92 1;
#X connect 96 0 82 0;
#X connect 97 0 98 0;
#X connect 98 0 130 0;
#X connect 99 0 130 1;
#X connect 100 0 130 2;
#X connect 101 0 130 3;
#X connect 102 0 130 4;
#X connect 103 0 130 5;
#X connect 104 0 130 6;
#X connect 105 0 130 7;
#X connect 106 0 130 8;
#X connect 107 0 130 9;
#X connect 108 0 130 10;
#X connect 109 0 130 11;
#X connect 110 0 130 12;
#X connect 111 0 130 13;
#X connect 112 0 130 14;
#X connect 113 0 130 15;
#X connect 114 0 130 16;
#X connect 115 0 130 17;
#X connect 116 0 130 18;
#X connect 117 0 130 19;
#X connect 119 0 98 0;
#X connect 120 0 123 0;
#X connect 122 0 123 1;
#X connect 123 0 14 0;
#X connect 124 0 0 0;
#X connect 125 0 127 0;
#X connect 126 0 127 1;
#X connect 127 0 14 0;
#X connect 128 0 10 0;
#X connect 128 0 121 0;
#X connect 129 0 11 0;
#X connect 129 0 121 0;
#X connect 130 0 131 0;
#X connect 131 0 118 0;
#X coords 0 -1 1 1 800 128 1 100 100;
